<svg width="557" height="135" viewBox="0 0 557 135" fill="none" xmlns="http://www.w3.org/2000/svg">
<path d="M69.4902 3.51321C59.4958 4.63511 50.1488 10.8413 45.4142 19.4889C44.5172 21.1334 44.4925 21.1581 43.8438 20.8344C41.4505 19.5877 37.7377 19.0144 34.9466 19.4382C27.5444 20.5601 22.36 25.868 21.3629 33.3456L21.0639 35.5634L18.7213 36.2108C14.6341 37.3574 11.0201 39.4764 8.1289 42.417C0.452403 50.2209 -0.919096 62.2342 4.8633 71.5058C6.4831 74.072 9.3249 76.9879 11.9665 78.7585L14.1843 80.2535L16.653 78.583C18.0232 77.686 19.1451 76.8631 19.1451 76.763C19.1451 76.6876 18.5965 76.4146 17.9244 76.165C14.5847 74.969 10.5222 71.2796 8.7269 67.8398C7.0317 64.6015 6.5585 62.6827 6.5585 59.0687C6.5585 56.5012 6.6586 55.6289 7.1565 54.0845C8.1783 50.7942 9.5498 48.4516 11.9171 46.0843C15.1827 42.7693 17.849 41.4732 23.3571 40.5268L26.4719 39.9782L26.4966 36.3889C26.4966 33.2481 26.5967 32.576 27.0699 31.354C28.1671 28.6123 30.5838 26.2203 33.2761 25.1478C34.398 24.6993 35.2456 24.5745 37.1137 24.5745L39.5317 24.5498L42.9715 26.2944C44.8903 27.2408 46.5101 28.0637 46.6102 28.1144C46.7103 28.1638 47.5826 26.6194 48.5537 24.6746C50.6974 20.4873 52.5161 17.9705 55.2084 15.4524C57.6511 13.1839 60.4916 11.4393 63.5583 10.2927C67.2217 8.92251 68.8922 8.6235 73.229 8.64821C76.5687 8.64821 77.4163 8.72231 79.5093 9.29561C88.3571 11.6382 95.3862 18.2188 98.2514 26.7676C99.1991 29.6341 99.6476 32.7749 99.6476 36.7867V40.3006L103.96 40.4501C108.297 40.5749 109.392 40.7738 112.109 41.871C115.324 43.1424 119.088 46.4574 120.957 49.6229C121.455 50.4952 122.229 52.2151 122.652 53.4618C123.351 55.5054 123.425 55.9786 123.425 58.9452C123.449 62.4344 123.001 64.4533 121.655 67.1703C119.612 71.2328 115.574 74.9963 111.786 76.2924C111.288 76.4666 110.889 76.7162 110.938 76.841C110.963 76.9658 112.06 77.7627 113.356 78.635L115.723 80.2054L116.845 79.5827C119.886 77.8381 123.226 74.5725 125.145 71.4824C130.952 62.1614 129.532 50.048 121.705 42.2467C117.767 38.2843 113.107 36.0652 107.249 35.3671C106.027 35.2176 104.98 35.0681 104.98 35.0681C104.956 35.0434 104.806 33.772 104.632 32.277C103.809 24.3262 100.942 18.2448 95.4096 12.712C91.6214 8.92381 87.8332 6.55521 83.0973 5.01081C78.2145 3.41441 74.2014 2.99061 69.4902 3.51321Z" fill="#319795"/>
<path d="M58.201 29.1102L51.545 33.5718L58.1503 37.958C61.789 40.4007 64.8544 42.3689 65.0039 42.3689C65.1534 42.3689 68.2188 40.3994 71.8575 37.958L78.4628 33.5718L71.8081 29.1102C68.12 26.6675 65.0793 24.6733 65.0039 24.6733C64.9298 24.6733 61.8891 26.6675 58.201 29.1102Z" fill="#319795"/>
<path d="M49.0529 47.3544V56.327L55.3579 60.5143C58.799 62.8322 61.789 64.8004 61.9632 64.9005C62.1881 65.05 62.2622 63.2313 62.2622 56.1268V47.1789L55.6569 42.7927L49.0516 38.3818V47.3544H49.0529Z" fill="#319795"/>
<path d="M74.3015 42.7927L67.7469 47.1789V56.1268C67.7469 63.23 67.821 65.05 68.0706 64.9005C68.2201 64.8004 71.2114 62.8322 74.6759 60.5143L80.9562 56.327V47.3544C80.9562 42.4196 80.9315 38.3818 80.9068 38.4065C80.8561 38.4065 77.8895 40.4007 74.3015 42.7927Z" fill="#319795"/>
<path d="M34.7217 56.7261C27.2948 60.9875 25.9233 61.8598 25.5749 62.5826C25.2005 63.3054 25.1264 64.1283 25.1264 67.8411V72.278H27.7433H30.3602V68.7134L30.3849 65.1748L36.8654 61.4607C40.4547 59.3924 43.42 57.5971 43.4707 57.4476C43.5461 57.2981 43.5461 55.9266 43.5201 54.4316L43.446 51.6899L34.7217 56.7261Z" fill="#319795"/>
<path d="M86.489 54.6318L86.5644 57.6725L93.093 61.436L99.6229 65.1748L99.6476 68.7134V72.278H102.264H104.881V67.8411C104.881 62.0834 104.981 62.2836 100.893 59.9397C99.1731 58.9673 95.2107 56.7001 92.0946 54.8801L86.4123 51.6145L86.489 54.6318Z" fill="#319795"/>
<path d="M21.0392 82.223L14.3598 86.6846L21.0639 91.1709L27.7927 95.6572L34.4227 91.271C38.0861 88.853 41.0527 86.8094 41.0527 86.7353C41.0774 86.6352 31.5068 80.2054 28.392 78.2112L27.7186 77.7874L21.0392 82.223Z" fill="#319795"/>
<path d="M95.5864 82.1723C91.923 84.615 88.9564 86.6586 88.9564 86.7327C88.9564 86.8068 91.923 88.8517 95.5864 91.2684L102.216 95.6546L108.945 91.1683L115.649 86.682L109.593 82.6442C106.253 80.4264 103.212 78.4075 102.864 78.1579L102.215 77.7341L95.5864 82.1723Z" fill="#319795"/>
<path d="M11.9171 100.641V109.589L18.5224 113.975L25.1277 118.386V109.414V100.441L18.8474 96.2539C15.3829 93.936 12.3916 91.9665 12.2421 91.8677C11.9912 91.7182 11.9171 93.5382 11.9171 100.641Z" fill="#319795"/>
<path d="M37.0396 96.0303L30.6345 100.318L30.6098 109.266V118.189L31.3079 117.74C31.6823 117.515 34.5982 115.572 37.7884 113.453L43.5708 109.589V100.641C43.5708 95.7313 43.5461 91.7182 43.5214 91.7442C43.4707 91.7429 40.5548 93.6877 37.0396 96.0303Z" fill="#319795"/>
<path d="M86.4383 100.641V109.589L92.2454 113.453C95.4109 115.572 98.3268 117.515 98.7259 117.74L99.3993 118.189V109.266L99.3746 100.318L92.9188 96.0056L86.4383 91.7182V100.641Z" fill="#319795"/>
<path d="M111.413 96.0797L104.883 100.441V109.414V118.386L111.488 113.975L118.093 109.589V100.641C118.093 95.7313 118.069 91.7182 118.018 91.7182C117.992 91.7182 115.027 93.6877 111.413 96.0797Z" fill="#319795"/>
<path d="M43.8698 115.944C41.7261 117.365 41.5766 117.514 42.0004 117.813C42.25 118.012 47.3343 120.979 53.2909 124.418C61.7903 129.353 64.3318 130.699 65.0052 130.699C65.7033 130.699 68.1954 129.353 76.9691 124.269C83.0752 120.755 88.1595 117.764 88.2596 117.664C88.3597 117.564 87.3873 116.767 86.0912 115.919L83.7486 114.373L74.6759 119.607C69.7164 122.474 65.4537 124.89 65.2548 124.99C65.0299 125.065 61.1923 122.996 55.7843 119.857C50.7741 116.966 46.5881 114.548 46.4373 114.498C46.3112 114.449 45.1399 115.096 43.8698 115.944Z" fill="#319795"/>
<path d="M150.413 42.6H172.445C177.821 42.6 182.597 43.656 186.773 45.768C190.949 47.832 194.189 50.784 196.493 54.624C198.797 58.416 199.949 62.808 199.949 67.8C199.949 72.792 198.797 77.208 196.493 81.048C194.189 84.84 190.949 87.792 186.773 89.904C182.597 91.968 177.821 93 172.445 93H150.413V42.6ZM172.013 85.08C175.709 85.08 178.949 84.384 181.733 82.992C184.565 81.552 186.725 79.536 188.213 76.944C189.749 74.304 190.517 71.256 190.517 67.8C190.517 64.344 189.749 61.32 188.213 58.728C186.725 56.088 184.565 54.072 181.733 52.68C178.949 51.24 175.709 50.52 172.013 50.52H159.773V85.08H172.013ZM241.882 81.336H216.682L211.714 93H202.066L224.746 42.6H233.962L256.714 93H246.922L241.882 81.336ZM238.786 73.992L229.282 51.96L219.85 73.992H238.786ZM270.816 50.52H254.112V42.6H296.88V50.52H280.176V93H270.816V50.52ZM334.061 81.336H308.861L303.893 93H294.245L316.925 42.6H326.141L348.893 93H339.101L334.061 81.336ZM330.965 73.992L321.461 51.96L312.029 73.992H330.965ZM389.016 67.224H397.872V87.312C395.28 89.376 392.256 90.96 388.8 92.064C385.344 93.168 381.792 93.72 378.144 93.72C373.008 93.72 368.376 92.616 364.248 90.408C360.12 88.152 356.88 85.056 354.528 81.12C352.176 77.184 351 72.744 351 67.8C351 62.856 352.176 58.416 354.528 54.48C356.88 50.544 360.12 47.472 364.248 45.264C368.424 43.008 373.104 41.88 378.288 41.88C382.512 41.88 386.352 42.576 389.808 43.968C393.264 45.36 396.168 47.4 398.52 50.088L392.616 55.848C388.776 52.008 384.144 50.088 378.72 50.088C375.168 50.088 372 50.832 369.216 52.32C366.48 53.808 364.32 55.896 362.736 58.584C361.2 61.272 360.432 64.344 360.432 67.8C360.432 71.16 361.2 74.184 362.736 76.872C364.32 79.56 366.48 81.672 369.216 83.208C372 84.744 375.144 85.512 378.648 85.512C382.584 85.512 386.04 84.648 389.016 82.92V67.224ZM442.905 81.336H417.705L412.737 93H403.089L425.769 42.6H434.985L457.737 93H447.945L442.905 81.336ZM439.809 73.992L430.305 51.96L420.873 73.992H439.809ZM503.315 85.08V93H460.331V86.736L489.995 50.52H460.835V42.6H502.379V48.864L472.715 85.08H503.315ZM549.689 85.152V93H511.889V42.6H548.681V50.448H521.249V63.552H545.585V71.256H521.249V85.152H549.689Z" fill="black"/>
</svg>
